<mxfile host="app.diagrams.net" agent="Mozilla/5.0 (Windows NT 10.0; Win64; x64) AppleWebKit/537.36 (KHTML, like Gecko) Chrome/122.0.0.0 Safari/537.36" version="24.7.12">
  <diagram name="Trang-1" id="q_6a9E0BnHVFQlEU5v89">
    <mxGraphModel dx="1050" dy="557" grid="1" gridSize="10" guides="1" tooltips="1" connect="1" arrows="1" fold="1" page="1" pageScale="1" pageWidth="827" pageHeight="1169" math="0" shadow="0">
      <root>
        <mxCell id="0" />
        <mxCell id="1" parent="0" />
        <mxCell id="YYs19TElNfTjpm-wUW9G-1" value="Tài xế" style="shape=umlActor;verticalLabelPosition=bottom;verticalAlign=top;html=1;outlineConnect=0;" vertex="1" parent="1">
          <mxGeometry x="90" y="190" width="30" height="60" as="geometry" />
        </mxCell>
        <mxCell id="YYs19TElNfTjpm-wUW9G-2" value="" style="endArrow=none;html=1;rounded=0;exitX=1;exitY=0.3333333333333333;exitDx=0;exitDy=0;exitPerimeter=0;" edge="1" parent="1" source="YYs19TElNfTjpm-wUW9G-1">
          <mxGeometry width="50" height="50" relative="1" as="geometry">
            <mxPoint x="260" y="280" as="sourcePoint" />
            <mxPoint x="190" y="170" as="targetPoint" />
          </mxGeometry>
        </mxCell>
        <mxCell id="YYs19TElNfTjpm-wUW9G-3" value="Xem bản đồ chỉ đường và khoảng cách giữa các điểm" style="ellipse;whiteSpace=wrap;html=1;" vertex="1" parent="1">
          <mxGeometry x="190" y="140" width="170" height="60" as="geometry" />
        </mxCell>
        <mxCell id="YYs19TElNfTjpm-wUW9G-4" value="Xem thời gian dự kiến đến nơi&lt;span style=&quot;color: rgba(0, 0, 0, 0); font-family: monospace; font-size: 0px; text-align: start; text-wrap: nowrap;&quot;&gt;%3CmxGraphModel%3E%3Croot%3E%3CmxCell%20id%3D%220%22%2F%3E%3CmxCell%20id%3D%221%22%20parent%3D%220%22%2F%3E%3CmxCell%20id%3D%222%22%20value%3D%22Xem%20b%E1%BA%A3n%20%C4%91%E1%BB%93%20ch%E1%BB%89%20%C4%91%C6%B0%E1%BB%9Dng%20v%C3%A0%20kho%E1%BA%A3ng%20c%C3%A1ch%20gi%E1%BB%AFa%20c%C3%A1c%20%C4%91i%E1%BB%83m%22%20style%3D%22ellipse%3BwhiteSpace%3Dwrap%3Bhtml%3D1%3B%22%20vertex%3D%221%22%20parent%3D%221%22%3E%3CmxGeometry%20x%3D%22190%22%20y%3D%22140%22%20width%3D%22170%22%20height%3D%2260%22%20as%3D%22geometry%22%2F%3E%3C%2FmxCell%3E%3C%2Froot%3E%3C%2FmxGraphModel%3E&lt;/span&gt;" style="ellipse;whiteSpace=wrap;html=1;" vertex="1" parent="1">
          <mxGeometry x="190" y="210" width="170" height="60" as="geometry" />
        </mxCell>
        <mxCell id="YYs19TElNfTjpm-wUW9G-5" value="Báo cáo sự cố&amp;nbsp;" style="ellipse;whiteSpace=wrap;html=1;" vertex="1" parent="1">
          <mxGeometry x="190" y="280" width="170" height="60" as="geometry" />
        </mxCell>
        <mxCell id="YYs19TElNfTjpm-wUW9G-6" value="extend" style="endArrow=open;endSize=12;dashed=1;html=1;rounded=0;entryX=0.969;entryY=0.363;entryDx=0;entryDy=0;entryPerimeter=0;" edge="1" parent="1" target="YYs19TElNfTjpm-wUW9G-5">
          <mxGeometry width="160" relative="1" as="geometry">
            <mxPoint x="440" y="270" as="sourcePoint" />
            <mxPoint x="610" y="280" as="targetPoint" />
          </mxGeometry>
        </mxCell>
        <mxCell id="YYs19TElNfTjpm-wUW9G-7" value="Không liên lạc được với khách hàng" style="ellipse;whiteSpace=wrap;html=1;" vertex="1" parent="1">
          <mxGeometry x="440" y="230" width="120" height="70" as="geometry" />
        </mxCell>
        <mxCell id="YYs19TElNfTjpm-wUW9G-8" value="Sai địa chỉ" style="ellipse;whiteSpace=wrap;html=1;" vertex="1" parent="1">
          <mxGeometry x="440" y="310" width="120" height="50" as="geometry" />
        </mxCell>
        <mxCell id="YYs19TElNfTjpm-wUW9G-9" value="Tắc đường" style="ellipse;whiteSpace=wrap;html=1;" vertex="1" parent="1">
          <mxGeometry x="440" y="370" width="120" height="50" as="geometry" />
        </mxCell>
        <mxCell id="YYs19TElNfTjpm-wUW9G-10" value="extend" style="endArrow=open;endSize=12;dashed=1;html=1;rounded=0;entryX=0.974;entryY=0.63;entryDx=0;entryDy=0;entryPerimeter=0;exitX=0;exitY=0.5;exitDx=0;exitDy=0;" edge="1" parent="1" source="YYs19TElNfTjpm-wUW9G-8" target="YYs19TElNfTjpm-wUW9G-5">
          <mxGeometry width="160" relative="1" as="geometry">
            <mxPoint x="450" y="280" as="sourcePoint" />
            <mxPoint x="365" y="312" as="targetPoint" />
          </mxGeometry>
        </mxCell>
        <mxCell id="YYs19TElNfTjpm-wUW9G-11" value="extend" style="endArrow=open;endSize=12;dashed=1;html=1;rounded=0;entryX=0.913;entryY=0.803;entryDx=0;entryDy=0;entryPerimeter=0;exitX=-0.003;exitY=0.348;exitDx=0;exitDy=0;exitPerimeter=0;" edge="1" parent="1" source="YYs19TElNfTjpm-wUW9G-9" target="YYs19TElNfTjpm-wUW9G-5">
          <mxGeometry width="160" relative="1" as="geometry">
            <mxPoint x="450" y="345" as="sourcePoint" />
            <mxPoint x="366" y="328" as="targetPoint" />
          </mxGeometry>
        </mxCell>
        <mxCell id="YYs19TElNfTjpm-wUW9G-12" value="" style="endArrow=none;html=1;rounded=0;exitX=1;exitY=0.3333333333333333;exitDx=0;exitDy=0;exitPerimeter=0;entryX=0;entryY=0.333;entryDx=0;entryDy=0;entryPerimeter=0;" edge="1" parent="1" source="YYs19TElNfTjpm-wUW9G-1" target="YYs19TElNfTjpm-wUW9G-4">
          <mxGeometry width="50" height="50" relative="1" as="geometry">
            <mxPoint x="130" y="220" as="sourcePoint" />
            <mxPoint x="200" y="180" as="targetPoint" />
          </mxGeometry>
        </mxCell>
        <mxCell id="YYs19TElNfTjpm-wUW9G-14" value="" style="endArrow=none;html=1;rounded=0;exitX=1;exitY=0.3333333333333333;exitDx=0;exitDy=0;exitPerimeter=0;entryX=0;entryY=0.5;entryDx=0;entryDy=0;" edge="1" parent="1" source="YYs19TElNfTjpm-wUW9G-1" target="YYs19TElNfTjpm-wUW9G-5">
          <mxGeometry width="50" height="50" relative="1" as="geometry">
            <mxPoint x="130" y="220" as="sourcePoint" />
            <mxPoint x="200" y="240" as="targetPoint" />
          </mxGeometry>
        </mxCell>
      </root>
    </mxGraphModel>
  </diagram>
</mxfile>
